{"title":"Katy Perry ft. Juicy J - Dark Horse 2014 HD 720p x264 AAC E-Subs","uid":9643944,"size":56557054,"categoryP":"video","categoryS":"music_videos","magnet":"?xt=urn:btih:065816c885333c882346eeebe7d39e4e73a3c7c0&amp;dn=Katy+Perry+ft.+Juicy+J+-+Dark+Horse+2014+HD+720p+x264+AAC+E-Subs&amp;tr=udp%3A%2F%2Ftracker.openbittorrent.com%3A80&amp;tr=udp%3A%2F%2Fopen.demonii.com%3A1337&amp;tr=udp%3A%2F%2Ftracker.coppersurfer.tk%3A6969&amp;tr=udp%3A%2F%2Fexodus.desync.com%3A6969","seeders":9,"leechers":0,"uploader":"canc232","files":1,"time":1392963896,"description":"Katy Perry ft. Juicy J - Dark Horse 2014 HD 720p x264 AAC E-Subs [GWC] \n\n\nCOVER : &lt;a href=&quot;\nhttp://i.imgur.com/afXma4m.jpg&quot; rel=&quot;nofollow&quot; target=&quot;_NEW&quot;&gt;\nhttp://i.imgur.com/afXma4m.jpg&lt;/a&gt;\n\n\nTHUMBNAIL IMAGE : &lt;a href=&quot;\nhttp://img839.imageshack.us/img839/9499/8fu3.jpg&quot; rel=&quot;nofollow&quot; target=&quot;_NEW&quot;&gt;\nhttp://img839.imageshack.us/img839/9499/8fu3.jpg&lt;/a&gt;\n\n\nMEDIA INFO :\nGeneral \nFormat : MPEG-4 \nFormat profile : Base Media \nFile size : 53.9 MiB \nDuration : 3mn 45s \nOverall bit rate mode : Variable \nOverall bit rate : 2 004 Kbps \n\nVideo \nFormat : AVC \nFormat profile : &lt;a class=&quot;__cf_email__&quot; href=&quot;/cdn-cgi/l/email-protection&quot; data-cfemail=&quot;206d41494e606c130e11&quot;&gt;[email&amp;#160;protected]&lt;/a&gt;&lt;script cf-hash='f9e31' type=&quot;text/javascript&quot;&gt;\n/* &lt;![CDATA[ */!function(){try{var t=&quot;currentScript&quot;in document?document.currentScript:function(){for(var t=document.getElementsByTagName(&quot;script&quot;),e=t.length;e--;)if(t[e].getAttribute(&quot;cf-hash&quot;))return t[e]}();if(t&amp;&amp;t.previousSibling){var e,r,n,i,c=t.previousSibling,a=c.getAttribute(&quot;data-cfemail&quot;);if(a){for(e=&quot;&quot;,r=parseInt(a.substr(0,2),16),n=2;a.length-n;n+=2)i=parseInt(a.substr(n,2),16)^r,e+=String.fromCharCode(i);e=document.createTextNode(e),c.parentNode.replaceChild(e,c)}}}catch(u){}}();/* ]]&gt; */&lt;/script&gt; \nFormat settings, CABAC : Yes \nFormat settings, ReFrames : 3 frames \nDuration : 3mn 44s \nBit rate : 1 924 Kbps \nMaximum bit rate : 4 386 Kbps \nWidth : 1 280 pixels \nHeight : 720 pixels \nDisplay aspect ratio : 16:9 \nFrame rate mode : Variable \nFrame rate : 23.976 fps \nStream size : 51.6 MiB (96%) \nTitle : Katy Perry ft. Juicy J - Dark Horse 2014 HD 720p x264 AAC E-Subs [GWC] \n\nAudio \nFormat : AAC \nFormat profile : LC \nDuration : 3mn 45s \nBit rate mode : Variable \nChannel(s) : 2 channels \nSampling rate : 48.0 KHz \nStream size : 2.23 MiB (4%) \nLanguage : English \n\nText \nFormat : Timed Text \nDuration : 3mn 45s \nBit rate mode : Variable \nStream size : 2.54 KiB (0%) \nTitle : English Subtitle by [GWC] \nLanguage : English \n","torrent":{"xt":"urn:btih:065816c885333c882346eeebe7d39e4e73a3c7c0","amp;dn":"Katy+Perry+ft.+Juicy+J+-+Dark+Horse+2014+HD+720p+x264+AAC+E-Subs","amp;tr":["udp%3A%2F%2Ftracker.openbittorrent.com%3A80","udp%3A%2F%2Fopen.demonii.com%3A1337","udp%3A%2F%2Ftracker.coppersurfer.tk%3A6969","udp%3A%2F%2Fexodus.desync.com%3A6969"],"infoHash":"065816c885333c882346eeebe7d39e4e73a3c7c0","infoHashBuffer":{"type":"Buffer","data":[6,88,22,200,133,51,60,136,35,70,238,235,231,211,158,78,115,163,199,192]},"announce":[],"urlList":[]}}